<svg viewBox="0 0 1024 1024" xmlns="http://www.w3.org/2000/svg" fill="currentColor"><path d="M512 0C229.222 0 0 229.222 0 512s229.222 512 512 512 512-229.222 512-512S794.778 0 512 0zm316.444 725.333c0 62.223-50.666 113.778-113.777 113.778H309.333c-62.222 0-113.777-51.555-113.777-113.778V455.111c0-170.667 141.333-311.111 316.444-311.111s316.444 140.444 316.444 311.111v270.222zm-632.888-21.333v-102.222h101.333v102.222H195.556zm531.555 0v-102.222h101.333v102.222H727.111zM512 254.222c-112 0-204.444 91.556-204.444 203.556V651.556h-51.556v-193.778c0-141.334 114.667-256 256-256s256 114.666 256 256v193.778H716.444V457.778c0-112-92.444-203.556-204.444-203.556z"/></svg>
